<svg width="39" height="20" viewBox="0 0 39 20" fill="none" xmlns="http://www.w3.org/2000/svg">
<path d="M7.17 14.17L1.32 14.5C0.98 14.5 0.71 14.41 0.51 14.23C0.31 14.05 0.21 13.86 0.21 13.66C0.21 13.44 0.48 13.25 1.02 13.09C1.18 12.57 1.8 11.02 2.88 8.44C3.98 5.86 4.57 4.41 4.65 4.09C4.75 3.75 4.85 3.36 4.95 2.92C5.05 2.48 5.14 2.15 5.22 1.93C5.3 1.71 5.47 1.48 5.73 1.24C5.99 0.999999 6.27 0.879999 6.57 0.879999C6.87 0.879999 7.08 1.01 7.2 1.27C7.34 1.53 7.41 1.81 7.41 2.11C7.41 2.87 7.15 3.65 6.63 4.45C6.11 5.23 5.41 6.46 4.53 8.14C3.65 9.82 2.92 11.42 2.34 12.94C3.3 12.94 4.3 12.83 5.34 12.61C6.4 12.37 7.12 12.22 7.5 12.16C7.8 8.68 8.18 6.94 8.64 6.94C8.86 6.94 9.08 7.09 9.3 7.39C9.54 7.69 9.66 7.99 9.66 8.29L9.42 11.98C10.2 11.98 10.88 12.16 11.46 12.52C12.06 12.88 12.36 13.27 12.36 13.69C12.36 14.21 12.03 14.47 11.37 14.47C11.09 14.47 10.73 14.42 10.29 14.32C9.87 14.2 9.51 14.14 9.21 14.14C9.17 14.98 9.15 16.28 9.15 18.04C9.15 18.4 8.99 18.7 8.67 18.94C8.37 19.18 7.94 19.3 7.38 19.3C6.98 19.3 6.78 18.97 6.78 18.31C6.78 17.25 6.91 15.87 7.17 14.17ZM16.4529 5.35C16.4529 5.63 16.5429 6 16.7229 6.46C16.9229 6.9 17.0229 7.25 17.0229 7.51C17.0229 7.75 16.9329 7.99 16.7529 8.23C16.5929 8.47 16.3729 8.59 16.0929 8.59C15.8129 8.59 15.5729 8.36 15.3729 7.9C15.1929 7.44 15.1029 6.98 15.1029 6.52C15.1029 5.24 15.6129 4.2 16.6329 3.4C17.6529 2.6 18.7629 2.2 19.9629 2.2C21.1629 2.2 22.1929 2.53 23.0529 3.19C23.9329 3.85 24.3729 4.73 24.3729 5.83C24.3729 6.91 24.1629 7.84 23.7429 8.62C23.3429 9.4 22.8729 10.03 22.3329 10.51C21.7929 10.99 20.9829 11.7 19.9029 12.64C18.8429 13.58 17.9129 14.48 17.1129 15.34C17.8329 15.46 18.8229 15.71 20.0829 16.09C21.3629 16.45 22.1129 16.63 22.3329 16.63C23.0729 16.63 23.7729 16.09 24.4329 15.01C24.7729 14.43 25.0129 14.14 25.1529 14.14C25.3329 14.14 25.4229 14.26 25.4229 14.5C25.4229 15.06 25.1329 15.8 24.5529 16.72C23.9929 17.64 23.4829 18.28 23.0229 18.64C22.5629 18.98 21.8729 19.15 20.9529 19.15C20.6729 19.15 19.9429 18.82 18.7629 18.16C17.5829 17.5 16.6329 17.17 15.9129 17.17C15.3529 18.39 14.8429 19 14.3829 19C14.0429 19 13.7629 18.9 13.5429 18.7C13.3429 18.5 13.2429 18.18 13.2429 17.74C13.2429 17.3 13.4729 16.79 13.9329 16.21C14.3929 15.63 14.9229 15.3 15.5229 15.22C16.2029 14.5 16.9729 13.73 17.8329 12.91C18.6929 12.09 19.3029 11.49 19.6629 11.11C20.0429 10.73 20.4229 10.28 20.8029 9.76C21.2029 9.24 21.4629 8.73 21.5829 8.23C21.7229 7.73 21.7929 7.1 21.7929 6.34C21.7929 5.58 21.5629 4.92 21.1029 4.36C20.6429 3.78 20.0329 3.49 19.2729 3.49C18.5129 3.49 17.8529 3.63 17.2929 3.91C16.7329 4.19 16.4529 4.67 16.4529 5.35ZM33.1941 3.88L31.6341 4.03C31.4741 4.03 31.3941 3.93 31.3941 3.73C31.3941 3.39 31.6641 3.1 32.2041 2.86C32.7441 2.62 33.3741 2.5 34.0941 2.5C35.3541 2.5 36.4241 3.1 37.3041 4.3C38.1841 5.5 38.6241 7.24 38.6241 9.52C38.6241 11.74 38.0741 13.85 36.9741 15.85C36.4341 16.83 35.6841 17.63 34.7241 18.25C33.7641 18.85 32.6741 19.15 31.4541 19.15C29.7541 19.15 28.5041 18.57 27.7041 17.41C26.9241 16.23 26.5341 14.74 26.5341 12.94C26.5341 9.56 27.3441 6.81 28.9641 4.69C29.6441 3.79 30.2241 3.34 30.7041 3.34C30.8441 3.34 30.9141 3.41 30.9141 3.55C30.9141 3.67 30.8241 3.85 30.6441 4.09C29.8041 5.29 29.2941 6.45 29.1141 7.57C28.9341 8.69 28.8441 10.11 28.8441 11.83C28.8441 13.55 29.1541 14.96 29.7741 16.06C30.3941 17.14 31.1441 17.68 32.0241 17.68C32.9041 17.68 33.6241 17.46 34.1841 17.02C34.7641 16.56 35.1941 15.96 35.4741 15.22C36.0141 13.76 36.2841 12.2 36.2841 10.54C36.2841 8.88 36.0241 7.36 35.5041 5.98C34.9841 4.58 34.2141 3.88 33.1941 3.88Z" fill="white"/>
</svg>
